<?xml version="1.0" encoding="UTF-8" standalone="no"?>
<!-- Created with Inkscape (http://www.inkscape.org/) -->

<svg
   xmlns:dc="http://purl.org/dc/elements/1.1/"
   xmlns:cc="http://creativecommons.org/ns#"
   xmlns:rdf="http://www.w3.org/1999/02/22-rdf-syntax-ns#"
   xmlns:svg="http://www.w3.org/2000/svg"
   xmlns="http://www.w3.org/2000/svg"
   xmlns:sodipodi="http://sodipodi.sourceforge.net/DTD/sodipodi-0.dtd"
   xmlns:inkscape="http://www.inkscape.org/namespaces/inkscape"
   width="171.85429mm"
   height="171.85429mm"
   viewBox="0 0 171.8543 171.8543"
   version="1.1"
   id="svg8"
   inkscape:version="0.92.1 r15371"
   sodipodi:docname="woot-icon.svg">
  <defs
     id="defs2">
    <clipPath
       clipPathUnits="userSpaceOnUse"
       id="clipPath29">
      <circle
         id="circle31"
         cx="92.226196"
         cy="158.66071"
         r="91.470238"
         style="stroke-width:0.26458332" />
    </clipPath>
    <clipPath
       clipPathUnits="userSpaceOnUse"
       id="clipPath45">
      <circle
         id="circle47"
         cx="90.959427"
         cy="159.72887"
         r="85.927147"
         style="stroke-width:0.26458332" />
    </clipPath>
  </defs>
  <sodipodi:namedview
     id="base"
     pagecolor="#ffffff"
     bordercolor="#666666"
     borderopacity="1.0"
     inkscape:pageopacity="0.0"
     inkscape:pageshadow="2"
     inkscape:zoom="0.98994949"
     inkscape:cx="129.32034"
     inkscape:cy="321.63136"
     inkscape:document-units="mm"
     inkscape:current-layer="layer1"
     showgrid="false"
     fit-margin-top="0"
     fit-margin-left="0"
     fit-margin-right="0"
     fit-margin-bottom="0"
     showguides="true"
     inkscape:guide-bbox="true"
     inkscape:window-width="1920"
     inkscape:window-height="1017"
     inkscape:window-x="-8"
     inkscape:window-y="-8"
     inkscape:window-maximized="1">
    <sodipodi:guide
       position="-8.9920978e-006,145.66191"
       orientation="1,0"
       id="guide33"
       inkscape:locked="false" />
    <sodipodi:guide
       position="18.976129,171.85432"
       orientation="0,1"
       id="guide35"
       inkscape:locked="false" />
    <sodipodi:guide
       position="171.85431,118.93496"
       orientation="1,0"
       id="guide37"
       inkscape:locked="false" />
    <sodipodi:guide
       position="34.745032,4.4023386e-006"
       orientation="0,1"
       id="guide39"
       inkscape:locked="false" />
  </sodipodi:namedview>
  <metadata
     id="metadata5">
    <rdf:RDF>
      <cc:Work
         rdf:about="">
        <dc:format>image/svg+xml</dc:format>
        <dc:type
           rdf:resource="http://purl.org/dc/dcmitype/StillImage" />
        <dc:title></dc:title>
      </cc:Work>
    </rdf:RDF>
  </metadata>
  <g
     inkscape:label="Capa 1"
     inkscape:groupmode="layer"
     id="layer1"
     transform="translate(-11.981288,-72.198102)">
    <g
       id="g23"
       clip-path="url(#clipPath45)"
       transform="translate(6.9490077,-1.6036172)">
      <g
         id="g3749"
         transform="matrix(0.26458333,0,0,0.26458333,-239.17483,10.533329)">
        <path
           style="fill:#f7ba01"
           d="m 2441.0507,899.91557 c -48.0009,-5.37388 -90.5214,-26.29483 -110.5834,-54.40918 -10.7926,-15.12441 -19.4958,-39.05169 -23.8437,-65.55187 -4.9243,-30.01288 -4.9809,-32.28279 -5.5694,-223.45452 l -0.5542,-180 -38.75,-0.26174 -38.75,-0.26175 V 308 240.02349 l 38.75,-0.26175 38.75,-0.26174 0.2574,-63.74071 0.2574,-63.74071 3.7426,-2.41307 c 8.2357,-5.31005 163.8618,-95.938377 165.4883,-96.371586 1.6523,-0.440073 1.7593,5.599456 2,112.900566 L 2472.5,239.5 l 58.25,0.25806 58.25,0.25806 V 308 375.98388 l -58.25,0.25806 -58.25,0.25806 -0.2907,139.5 c -0.2846,136.56957 0.5405,197.00621 2.8597,209.45979 4.3125,23.15668 25.4309,35.90206 53.987,32.58224 12.3757,-1.43875 26.1168,-4.7506 44.1107,-10.63144 8.0703,-2.63756 14.4254,-4.21847 14.9299,-3.714 0.4831,0.48309 4.0704,30.059 7.9718,65.72425 5.9011,53.94574 6.8697,65.06674 5.7625,66.15968 -1.8775,1.85331 -18.073,7.88034 -32.2889,12.01605 -14.6129,4.25117 -36.6728,8.7693 -53.542,10.96597 -14.7838,1.92512 -62.1943,2.78101 -74.9493,1.35303 z M 1215,886.90532 C 1148.5444,879.52521 1085.6868,852.42919 1036.5,809.95934 1026.7509,801.54159 1007.4941,782.1297 999.33993,772.5 983.36782,753.63772 968.1288,729.80312 956.0323,704.76466 940.66496,672.95591 932.31419,645.49877 926.2983,607 c -2.59511,-16.60746 -2.59511,-69.39254 0,-86 6.01589,-38.49877 14.36666,-65.95591 29.734,-97.76466 17.38732,-35.98988 37.28419,-63.66424 65.6235,-91.27505 14.6338,-14.25762 20.6403,-19.36528 35.5912,-30.26501 15.8371,-11.54591 30.5093,-20.25231 49.9883,-29.66298 31.8088,-15.36734 59.2659,-23.71811 97.7647,-29.734 16.6075,-2.59511 69.3925,-2.59511 86,0 38.4988,6.01589 65.9559,14.36666 97.7647,29.734 19.479,9.41067 34.1512,18.11707 49.9883,29.66298 14.9509,10.89973 20.9574,16.00739 35.5912,30.26501 28.3393,27.61081 48.2362,55.28517 65.6235,91.27505 15.3673,31.80875 23.7181,59.26589 29.734,97.76466 2.5951,16.60746 2.5951,69.39254 0,86 -6.0159,38.49877 -14.3667,65.95591 -29.734,97.76466 -17.3873,35.98988 -37.2842,63.66424 -65.6235,91.27505 -14.6338,14.25762 -20.6403,19.36528 -35.5912,30.26501 -15.8371,11.54591 -30.5093,20.25231 -49.9883,29.66298 -31.5037,15.21995 -58.9666,23.61695 -96.7647,29.58663 -12.4184,1.9613 -63.4429,2.85655 -77,1.35099 z m 71,-145.00839 c 4.8768,-2.21712 10.725,-9.01242 11.6935,-13.58727 1.0574,-4.99473 1.0519,-323.64942 -0.01,-328.64943 -1.0251,-4.8468 -7.586,-12.11057 -12.5181,-13.85918 -5.2649,-1.86661 -75.0745,-1.86661 -80.3394,0 -4.9321,1.74861 -11.493,9.01238 -12.5181,13.85918 C 1191.8655,401.7721 1191.5,476.175 1191.5,565 c 0,130.03257 0.2535,162.21502 1.301,165.1697 1.8126,5.11231 9.0412,11.5458 13.8592,12.33474 2.1119,0.34581 4.5148,0.7871 5.3398,0.98066 0.825,0.19355 17.025,0.27341 36,0.17747 29.1518,-0.14741 35.0426,-0.42112 38,-1.76564 z m 613,145.00839 c -66.4556,-7.38011 -129.3132,-34.47613 -178.5,-76.94598 -9.7491,-8.41775 -29.0059,-27.82964 -37.1601,-37.45934 -15.9721,-18.86228 -31.2111,-42.69688 -43.3076,-67.73534 -15.3673,-31.80875 -23.7181,-59.26589 -29.734,-97.76466 -2.5951,-16.60746 -2.5951,-69.39254 0,-86 6.0159,-38.49877 14.3667,-65.95591 29.734,-97.76466 17.3873,-35.98988 37.2842,-63.66424 65.6235,-91.27505 14.6338,-14.25762 20.6403,-19.36528 35.5912,-30.26501 15.8371,-11.54591 30.5093,-20.25231 49.9883,-29.66298 31.8088,-15.36734 59.2659,-23.71811 97.7647,-29.734 16.6075,-2.59511 69.3925,-2.59511 86,0 38.4988,6.01589 65.9559,14.36666 97.7647,29.734 19.479,9.41067 34.1512,18.11707 49.9883,29.66298 14.9509,10.89973 20.9574,16.00739 35.5912,30.26501 28.3393,27.61081 48.2362,55.28517 65.6235,91.27505 15.3673,31.80875 23.7181,59.26589 29.734,97.76466 2.5951,16.60746 2.5951,69.39254 0,86 -6.0159,38.49877 -14.3667,65.95591 -29.734,97.76466 -17.3873,35.98988 -37.2842,63.66424 -65.6235,91.27505 -14.6338,14.25762 -20.6403,19.36528 -35.5912,30.26501 -15.8371,11.54591 -30.5093,20.25231 -49.9883,29.66298 -31.5037,15.21995 -58.9666,23.61695 -96.7647,29.58663 -12.4184,1.9613 -63.4429,2.85655 -77,1.35099 z m 71,-145.00839 c 4.8768,-2.21712 10.725,-9.01242 11.6935,-13.58727 1.0574,-4.99473 1.0519,-323.64942 -0.01,-328.64943 -1.0251,-4.8468 -7.586,-12.11057 -12.5181,-13.85918 -5.2649,-1.86661 -75.0745,-1.86661 -80.3394,0 -4.9321,1.74861 -11.493,9.01238 -12.5181,13.85918 C 1875.8655,401.7721 1875.5,476.175 1875.5,565 c 0,130.03257 0.2535,162.21502 1.301,165.1697 1.8126,5.11231 9.0412,11.5458 13.8592,12.33474 2.1119,0.34581 4.5148,0.7871 5.3398,0.98066 0.825,0.19355 17.025,0.27341 36,0.17747 29.1518,-0.14741 35.0426,-0.42112 38,-1.76564 z M 208.26254,884.25 C 205.25437,876.44747 5.2769808,241.36085 5.642198,240.76992 5.9039078,240.34646 43.195216,240 88.511771,240 h 82.393739 l 1.85464,6.25 c 1.02005,3.4375 27.92881,97.71132 59.79724,209.49737 31.86844,111.78605 58.39261,203.09968 58.94261,202.91917 0.55,-0.18051 25.7592,-94.34183 56.02044,-209.24737 L 402.54089,240.5 l 82.72955,-0.25578 c 45.50126,-0.14068 82.7556,-0.14068 82.78743,0 4.52502,19.99899 106.77493,418.20051 107.44213,418.42208 0.55,0.18264 28.18998,-93.15506 61.42218,-207.41711 33.2322,-114.26206 60.81053,-208.53669 61.28518,-209.49919 0.81161,-1.64578 5.83014,-1.75 84.26881,-1.75 45.87319,0 83.61461,0.33786 83.86982,0.75081 0.25522,0.41295 -45.98821,145.65045 -102.76317,322.75 L 760.35562,885.5 678.4837,885.75589 c -45.02956,0.14074 -82.20818,-0.0843 -82.61915,-0.5 C 595.45358,884.84015 570.52983,792.7 540.47844,680.5 510.42706,568.3 485.47645,476.12329 485.03265,475.66287 c -0.4438,-0.46043 -1.03621,-0.46043 -1.31646,0 -0.28025,0.46042 -24.62001,92.23407 -54.08835,203.94144 -29.46834,111.70737 -53.86298,203.84487 -54.21031,204.75 -0.57916,1.50928 -7.50505,1.64569 -83.5559,1.64569 -78.05193,0 -82.96404,-0.10283 -83.59909,-1.75 z"
           id="path3753"
           inkscape:connector-curvature="0" />
        <path
           style="fill:#010101"
           d="m 2447,899.89644 c -43.15,-3.76323 -82.3773,-19.51672 -105.5701,-42.39644 -15.9655,-15.74996 -26.6307,-38.06268 -32.7623,-68.54203 -6.6052,-32.83392 -6.8902,-41.77897 -7.5645,-237.45797 L 2300.5,376.5 2262,376 2223.5,375.5 V 308 240.5 l 38.5,-0.5 38.5,-0.5 0.5,-63.66711 c 0.275,-35.01691 0.725,-63.86473 1,-64.10627 1.4015,-1.231 167.1239,-97.743525 168.2181,-97.965999 1.0342,-0.210251 1.3785,21.579002 1.7819,112.739379 l 0.5,113 58,0.5 58,0.5 v 67.5 67.5 l -58,0.5 -58,0.5 v 167 c 0,179.55527 0.019,180.22399 5.0694,191.47807 4.9548,11.04077 17.2406,20.37864 30.4294,23.12806 13.0526,2.72105 36.6159,-0.858 64.2664,-9.76149 7.6282,-2.4563 14.4014,-4.28941 15.0516,-4.07357 1.1774,0.3909 15.7904,127.89466 14.9417,130.37205 -0.8831,2.57772 -32.5478,13.10906 -53.2597,17.71362 -31.5013,7.00321 -72.9884,10.06988 -102,7.5397 z M 209.26831,884.75 C 207.29122,882.21938 5.8070737,241.79293 6.7053877,240.89461 7.2367136,240.36329 41.31692,240.09407 89.055922,240.24408 L 170.5,240.5 l 60,210 c 33,115.5 60.4449,210 60.98866,210 0.54377,0 25.74703,-94.05 56.00725,-209 30.26022,-114.95 55.37938,-209.5625 55.82035,-210.25 1.03998,-1.62138 163.19368,-1.85195 164.19395,-0.23348 0.34554,0.55909 24.4494,94.72159 53.56414,209.25 29.11474,114.52842 53.17334,208.87123 53.46355,209.6507 0.31798,0.85403 0.88469,1.05272 1.42609,0.5 C 676.45813,659.91275 704.17011,565.675 737.54617,451 770.92223,336.325 798.68329,241.9375 799.2374,241.25 c 1.30097,-1.61412 165.27257,-1.8519 166.2681,-0.24111 0.54016,0.87401 -201.46259,633.05214 -205.05846,641.74111 l -1.34499,3.25 h -80.99201 c -63.52629,0 -81.16647,-0.26852 -81.80102,-1.24517 -0.44496,-0.68485 -25.55902,-93.49735 -55.80902,-206.25 -30.25,-112.75266 -55.45,-204.9274 -56,-204.83277 -0.55,0.0946 -25.34827,92.39619 -55.10727,205.11456 -29.759,112.71837 -54.42306,205.45344 -54.80902,206.07793 -1.06696,1.72639 -163.96533,1.61351 -165.3154,-0.11455 z"
           id="path3751"
           inkscape:connector-curvature="0" />
      </g>
    </g>
  </g>
</svg>
